<?xml version="1.0" encoding="UTF-8"?>
<svg id="Camada_2" data-name="Camada 2" xmlns="http://www.w3.org/2000/svg" viewBox="0 0 58.51 58.5">
  <defs>
    <style>
      .cls-1 {
        fill: #fff;
        stroke-width: 0px;
      }
    </style>
  </defs>
  <g id="Camada_1-2" data-name="Camada 1">
    <path class="cls-1" d="m58.51,29.29c-.12,16.31-13.24,29.33-29.41,29.2C12.8,58.37-.14,45.19,0,28.88.14,12.82,13.39-.12,29.56,0c16,.12,29.06,13.35,28.95,29.29Zm-24.8,26.35c10.65-1.35,22.78-11.51,22.39-27.16-.37-14.89-12.76-26.46-27.77-26.06C13.62,2.82,2,15.18,2.45,30.16c.46,15.34,12.93,24.44,22.38,25.45v-18.28h-7.01v-8.07h7.08c0-.48,0-.82,0-1.17,0-1.98-.04-3.96.03-5.94.17-4.88,2.73-8.37,6.99-9.56,3.26-.91,6.51-.37,9.76.06v6.88c-1.3,0-2.52-.03-3.73,0-2.13.07-3.75.99-4.01,2.75-.34,2.27-.28,4.6-.39,7.02h7.89c-.42,2.73-.82,5.34-1.24,8.05h-6.48v18.27Z"/>
  </g>
</svg>