<?xml version="1.0" encoding="UTF-8"?>
<svg id="Camada_2" data-name="Camada 2" xmlns="http://www.w3.org/2000/svg" viewBox="0 0 58.75 58.75">
  <defs>
    <style>
      .cls-1 {
        fill: #fff;
        stroke-width: 0px;
      }
    </style>
  </defs>
  <g id="Camada_1-2" data-name="Camada 1">
    <g>
      <path class="cls-1" d="m29.41,0c16.16,0,29.32,13.15,29.34,29.34.02,16.28-13.14,29.42-29.45,29.41C13.11,58.74-.06,45.49,0,29.28.06,13.1,13.22,0,29.41,0Zm26.93,29.38c-.04-15-12.11-27.02-27.12-26.98-14.82.04-26.86,12.22-26.81,27.12.05,14.85,12.19,26.87,27.09,26.82,14.85-.05,26.88-12.13,26.84-26.95Z"/>
      <path class="cls-1" d="m12.92,29.29c0-2.14-.01-4.28,0-6.42.04-5.63,4.2-9.91,9.83-10,4.44-.07,8.88-.08,13.32,0,5.62.11,9.78,4.43,9.8,10.05.01,4.28.02,8.56,0,12.84-.02,5.69-4.3,10.01-10,10.06-4.31.04-8.62.03-12.94,0-5.73-.04-9.97-4.3-10.02-10.02-.02-2.17,0-4.34,0-6.52Zm3.04-.05c0,2.2-.02,4.41,0,6.61.04,3.81,2.71,6.78,6.52,6.89,4.59.14,9.19.13,13.79,0,3.79-.11,6.53-3.09,6.56-6.88.03-4.34.03-8.68,0-13.02-.03-3.84-2.8-6.8-6.64-6.9-4.53-.11-9.07-.11-13.6,0-3.84.09-6.6,3.05-6.64,6.89-.02,2.14,0,4.28,0,6.42Z"/>
      <path class="cls-1" d="m21.42,29.34c0-4.46,3.65-8.1,8.11-8.1,4.45,0,8.11,3.66,8.11,8.11,0,4.46-3.65,8.1-8.11,8.1-4.45,0-8.1-3.65-8.1-8.11Zm2.85,0c0,2.87,2.37,5.25,5.25,5.25,2.86,0,5.25-2.38,5.25-5.25,0-2.86-2.39-5.25-5.25-5.25-2.86,0-5.25,2.39-5.25,5.25Z"/>
      <path class="cls-1" d="m40.01,20.65c0,1.06-.8,1.88-1.85,1.89-1.08.01-1.96-.87-1.93-1.93.03-1.02.91-1.88,1.92-1.87,1.03.01,1.86.86,1.86,1.9Z"/>
    </g>
  </g>
</svg>